<svg width="50" height="50" viewBox="0 0 50 50" fill="none" xmlns="http://www.w3.org/2000/svg">
<path d="M21.875 43.75C23.6009 43.75 25 42.3509 25 40.625C25 38.8991 23.6009 37.5 21.875 37.5C20.1491 37.5 18.75 38.8991 18.75 40.625C18.75 42.3509 20.1491 43.75 21.875 43.75Z" fill="#3C921E"/>
<path d="M36.4587 43.75C38.1846 43.75 39.5837 42.3509 39.5837 40.625C39.5837 38.8991 38.1846 37.5 36.4587 37.5C34.7329 37.5 33.3337 38.8991 33.3337 40.625C33.3337 42.3509 34.7329 43.75 36.4587 43.75Z" fill="#3C921E"/>
<path d="M43.7496 14.5833H15.2788L12.8746 8.81251C12.559 8.05239 12.0248 7.40308 11.3398 6.94689C10.6548 6.49069 9.84971 6.24815 9.02668 6.25001H4.16626V10.4167H9.02876L18.91 34.1354C19.2329 34.9104 19.9933 35.4167 20.8329 35.4167H37.4996C38.3683 35.4167 39.1454 34.8771 39.4517 34.0667L45.7017 17.4C45.8187 17.0846 45.8579 16.7455 45.8159 16.4117C45.7738 16.0779 45.6518 15.7592 45.4601 15.4826C45.2685 15.2061 45.0129 14.9799 44.7151 14.8234C44.4173 14.6668 44.086 14.5845 43.7496 14.5833ZM35.4163 27.0833H31.2496V31.25H27.0829V27.0833H22.9163V22.9167H27.0829V18.75H31.2496V22.9167H35.4163V27.0833Z" fill="#3C921E"/>
</svg>
